<svg xmlns="http://www.w3.org/2000/svg" width="1600" height="900" viewBox="0 0 1600 900" role="img" aria-labelledby="title desc">
  <title id="title">MCPM interface preview</title>
  <desc id="desc">A desktop app preview showing MCP servers connected to multiple AI coding agents.</desc>
  <defs>
    <linearGradient id="bg" x1="0" y1="0" x2="1" y2="1">
      <stop offset="0" stop-color="#0f172a"/>
      <stop offset="0.45" stop-color="#111827"/>
      <stop offset="1" stop-color="#12211b"/>
    </linearGradient>
    <linearGradient id="panel" x1="0" y1="0" x2="1" y2="1">
      <stop offset="0" stop-color="#182235"/>
      <stop offset="1" stop-color="#0f172a"/>
    </linearGradient>
    <linearGradient id="accent" x1="0" y1="0" x2="1" y2="0">
      <stop offset="0" stop-color="#22c55e"/>
      <stop offset="1" stop-color="#38bdf8"/>
    </linearGradient>
    <filter id="shadow" x="-20%" y="-20%" width="140%" height="140%">
      <feDropShadow dx="0" dy="24" stdDeviation="28" flood-color="#020617" flood-opacity="0.45"/>
    </filter>
  </defs>
  <rect width="1600" height="900" fill="url(#bg)"/>
  <rect x="108" y="88" width="1384" height="724" rx="34" fill="#0b1120" stroke="#334155" stroke-width="2" filter="url(#shadow)"/>
  <rect x="108" y="88" width="1384" height="64" rx="34" fill="#111827"/>
  <circle cx="150" cy="120" r="7" fill="#ef4444"/>
  <circle cx="174" cy="120" r="7" fill="#f59e0b"/>
  <circle cx="198" cy="120" r="7" fill="#22c55e"/>
  <text x="240" y="128" fill="#cbd5e1" font-family="Inter, Arial, sans-serif" font-size="18" font-weight="600">MCPM</text>
  <rect x="140" y="184" width="224" height="584" rx="22" fill="#0f172a" stroke="#1f2937"/>
  <text x="174" y="232" fill="#e5e7eb" font-family="Inter, Arial, sans-serif" font-size="20" font-weight="700">Servers</text>
  <g font-family="Inter, Arial, sans-serif" font-size="15">
    <rect x="166" y="266" width="172" height="42" rx="10" fill="#172033"/>
    <text x="188" y="293" fill="#e5e7eb">github</text>
    <rect x="166" y="324" width="172" height="42" rx="10" fill="#0b1220" stroke="#243044"/>
    <text x="188" y="351" fill="#94a3b8">context7</text>
    <rect x="166" y="382" width="172" height="42" rx="10" fill="#0b1220" stroke="#243044"/>
    <text x="188" y="409" fill="#94a3b8">filesystem</text>
    <rect x="166" y="440" width="172" height="42" rx="10" fill="#0b1220" stroke="#243044"/>
    <text x="188" y="467" fill="#94a3b8">postgres</text>
  </g>
  <rect x="396" y="184" width="632" height="584" rx="22" fill="url(#panel)" stroke="#263244"/>
  <text x="440" y="238" fill="#f8fafc" font-family="Inter, Arial, sans-serif" font-size="28" font-weight="800">One server. Many agents.</text>
  <text x="440" y="274" fill="#94a3b8" font-family="Inter, Arial, sans-serif" font-size="18">Install, sync, inspect, and debug MCP configs from one desktop app.</text>
  <g stroke="url(#accent)" stroke-width="3" fill="none" opacity="0.86">
    <path d="M558 478 C650 386 744 386 838 478"/>
    <path d="M558 478 C646 478 748 478 838 478"/>
    <path d="M558 478 C650 570 744 570 838 478"/>
  </g>
  <circle cx="558" cy="478" r="74" fill="#0b1220" stroke="#22c55e" stroke-width="3"/>
  <text x="558" y="468" text-anchor="middle" fill="#f8fafc" font-family="Inter, Arial, sans-serif" font-size="20" font-weight="800">MCP</text>
  <text x="558" y="494" text-anchor="middle" fill="#94a3b8" font-family="Inter, Arial, sans-serif" font-size="14">Server</text>
  <g font-family="Inter, Arial, sans-serif" font-size="15" font-weight="700">
    <rect x="806" y="302" width="150" height="52" rx="14" fill="#111827" stroke="#334155"/>
    <text x="881" y="334" text-anchor="middle" fill="#e5e7eb">Codex</text>
    <rect x="864" y="420" width="150" height="52" rx="14" fill="#111827" stroke="#334155"/>
    <text x="939" y="452" text-anchor="middle" fill="#e5e7eb">Cursor</text>
    <rect x="806" y="538" width="150" height="52" rx="14" fill="#111827" stroke="#334155"/>
    <text x="881" y="570" text-anchor="middle" fill="#e5e7eb">Claude</text>
  </g>
  <rect x="440" y="650" width="544" height="58" rx="14" fill="#0b1220" stroke="#253247"/>
  <rect x="462" y="670" width="116" height="18" rx="9" fill="#22c55e"/>
  <rect x="594" y="670" width="116" height="18" rx="9" fill="#38bdf8"/>
  <rect x="726" y="670" width="116" height="18" rx="9" fill="#a78bfa"/>
  <rect x="1112" y="184" width="336" height="584" rx="22" fill="#0f172a" stroke="#1f2937"/>
  <text x="1152" y="238" fill="#f8fafc" font-family="Inter, Arial, sans-serif" font-size="24" font-weight="800">Live status</text>
  <g font-family="Inter, Arial, sans-serif" font-size="15">
    <rect x="1152" y="278" width="256" height="72" rx="16" fill="#172033"/>
    <circle cx="1184" cy="314" r="8" fill="#22c55e"/>
    <text x="1208" y="309" fill="#e5e7eb" font-weight="700">github</text>
    <text x="1208" y="332" fill="#94a3b8">HTTP 200</text>
    <rect x="1152" y="374" width="256" height="72" rx="16" fill="#172033"/>
    <circle cx="1184" cy="410" r="8" fill="#38bdf8"/>
    <text x="1208" y="405" fill="#e5e7eb" font-weight="700">filesystem</text>
    <text x="1208" y="428" fill="#94a3b8">PID 4218 · 34 MB</text>
    <rect x="1152" y="470" width="256" height="72" rx="16" fill="#172033"/>
    <circle cx="1184" cy="506" r="8" fill="#f59e0b"/>
    <text x="1208" y="501" fill="#e5e7eb" font-weight="700">registry</text>
    <text x="1208" y="524" fill="#94a3b8">ready to install</text>
  </g>
</svg>
